<?xml version="1.0" encoding="UTF-8" standalone="no"?>
<svg
   xmlns:dc="http://purl.org/dc/elements/1.1/"
   xmlns:cc="http://creativecommons.org/ns#"
   xmlns:rdf="http://www.w3.org/1999/02/22-rdf-syntax-ns#"
   xmlns:svg="http://www.w3.org/2000/svg"
   xmlns="http://www.w3.org/2000/svg"
   xmlns:sodipodi="http://sodipodi.sourceforge.net/DTD/sodipodi-0.dtd"
   xmlns:inkscape="http://www.inkscape.org/namespaces/inkscape"
   width="128"
   height="128"
   version="1.1"
   id="svg14"
   sodipodi:docname="rosa.svg"
   inkscape:version="0.92.1 r">
  <metadata
     id="metadata20">
    <rdf:RDF>
      <cc:Work
         rdf:about="">
        <dc:format>image/svg+xml</dc:format>
        <dc:type
           rdf:resource="http://purl.org/dc/dcmitype/StillImage" />
        <dc:title />
      </cc:Work>
    </rdf:RDF>
  </metadata>
  <defs
     id="defs18" />
  <sodipodi:namedview
     pagecolor="#ffffff"
     bordercolor="#666666"
     borderopacity="1"
     objecttolerance="10"
     gridtolerance="10"
     guidetolerance="10"
     inkscape:pageopacity="0"
     inkscape:pageshadow="2"
     inkscape:window-width="1680"
     inkscape:window-height="965"
     id="namedview16"
     showgrid="false"
     inkscape:zoom="1.84375"
     inkscape:cx="-78.007172"
     inkscape:cy="52.815909"
     inkscape:window-x="0"
     inkscape:window-y="0"
     inkscape:window-maximized="1"
     inkscape:current-layer="svg14" />
  <g
     id="g4540">
    <path
       sodipodi:nodetypes="cssccccccccccccccscscccccccccccccccccccccccccccccccccscscccscscccccccccccscccccc"
       inkscape:connector-curvature="0"
       id="path5644-1-3-5-3-5-8-3-3"
       d="m 86.107315,35.60081 c -0.254414,0.0036 -0.578244,0.02194 -1.016183,0.05314 -0.875877,0.0624 -2.1939,0.181597 -4.078436,0.368524 -3.769074,0.373855 -9.798763,1.018273 -18.96816,2.022599 -6.003359,0.656797 -9.553278,1.394916 -12.691136,2.721937 -0.75052,0.29269 -1.473356,0.662105 -2.203727,1.026725 -0.211697,0.117557 -0.442155,0.204879 -0.654606,0.330815 -7.811416,4.161105 -14.160859,12.208639 -14.848595,20.981883 -0.222518,1.708908 -0.296751,3.331802 -0.258758,4.900516 -0.03447,2.766647 0.166379,5.523092 0.807119,7.452759 2.768534,10.58988 11.901701,19.431692 22.457108,21.700083 h 0.0018 l 0.123381,0.02738 h 0.08911 c 6.666666,1.384233 13.35723,0.505947 19.705019,-2.601956 3.089444,-1.513398 4.793703,-2.78226 7.671918,-5.70784 2.12445,-2.158272 4.14589,-4.655645 5.002083,-6.3609 1.942006,-3.87092 3.040757,-6.946461 3.327867,-11.415682 0.28711,-4.469221 -0.185456,-10.308849 -1.226958,-20.076858 -0.41509,-3.892293 -0.813471,-7.452052 -1.120714,-10.054713 -0.153622,-1.30133 -0.284147,-2.362214 -0.383853,-3.112744 -0.04985,-0.375265 -0.09185,-0.67118 -0.126808,-0.891315 -0.01748,-0.110067 -0.0317,-0.198675 -0.04969,-0.286249 -0.009,-0.04378 -0.01899,-0.08506 -0.0377,-0.150838 -0.0094,-0.03289 -0.01916,-0.07151 -0.04626,-0.138839 -0.01355,-0.03366 -0.03164,-0.07454 -0.06512,-0.135411 -0.01674,-0.03044 -0.03632,-0.06592 -0.06683,-0.109701 -0.03052,-0.04378 -0.133275,-0.159018 -0.133662,-0.159408 v -0.0018 h -0.0018 c -0.328455,-0.330257 -0.493185,-0.308004 -0.603197,-0.334243 -0.110013,-0.02624 -0.177557,-0.03218 -0.241622,-0.03771 -0.128131,-0.01105 -0.234369,-0.01209 -0.361576,-0.01029 z m -2.920024,3.105889 c -0.07202,0.09095 -0.09465,0.124635 -0.16965,0.2194 -1.092922,1.05525 -2.795265,3.536934 -3.69287,5.440447 -3.826494,8.118571 -8.78187,15.387766 -14.118589,20.753914 -6.217343,6.252733 -12.580069,10.139447 -18.913324,11.674505 l -0.03256,0.0086 c -1.841478,0.447956 -4.383012,0.934366 -5.433917,1.057579 l -0.02399,0.0018 -4.537689,0.71648 c -0.945908,-2.170786 -1.673581,-4.318254 -2.08206,-6.556303 -0.09483,-0.817671 -0.228446,-1.471081 -0.260471,-2.432261 -0.02945,-0.344595 -0.07843,-0.680546 -0.09425,-1.031867 -0.01537,-2.424235 0.147721,-4.916157 0.484957,-6.436319 l 0.0018,-0.0068 v -0.0068 c 1.104583,-5.261672 5.427542,-12.150491 9.582614,-15.304898 1.281726,-0.97315 2.350964,-1.705689 3.406694,-2.370553 1.941178,-1.092426 3.960219,-1.959316 6.001129,-2.42369 h 0.0018 c 0.514384,-0.117105 3.766275,-0.578421 7.43715,-1.031868 3.670876,-0.453447 7.930486,-0.942044 11.037485,-1.25641 3.106646,-0.317591 6.478277,-0.603778 9.109651,-0.822752 0.923513,-0.07685 1.596477,-0.132984 2.296263,-0.191976 z m 2.440208,0.757617 c 0.0713,0.572897 0.130672,1.034916 0.219344,1.786056 0.305679,2.589411 0.702997,6.142493 1.117286,10.027289 1.038792,9.742583 1.487524,15.506185 1.220104,19.66891 -0.267421,4.162725 -1.198105,6.747054 -3.079391,10.496941 -0.557479,1.109673 -2.58044,3.734376 -4.568536,5.754121 -2.799784,2.845861 -4.073396,3.794364 -7.01731,5.236473 C 67.53758,95.362629 61.380299,96.156191 55.155748,94.818372 47.669627,93.209583 40.847178,87.783345 37.00499,80.888155 l 4.100714,-0.647917 c 1.038822,-0.121796 2.892763,-0.514443 4.554825,-0.882744 l 0.01371,0.05314 1.151558,-0.277679 c 6.886216,-1.661218 13.62565,-5.834463 20.078592,-12.324137 5.575389,-5.606132 10.65545,-13.080472 14.58641,-21.420686 0.698126,-1.480485 1.67057,-3.074164 2.869631,-4.589194 0.299596,-0.378543 1.019872,-1.018122 1.267069,-1.334619 z m -53.65201,22.13888 c -3.01e-4,0.0013 3e-4,0.0038 0,0.0052 -6e-4,0.0028 -0.0028,0.0057 -0.0034,0.0086 z"
       style="color:#000000;font-style:normal;font-variant:normal;font-weight:normal;font-stretch:normal;font-size:medium;line-height:normal;font-family:sans-serif;font-variant-ligatures:normal;font-variant-position:normal;font-variant-caps:normal;font-variant-numeric:normal;font-variant-alternates:normal;font-feature-settings:normal;text-indent:0;text-align:start;text-decoration:none;text-decoration-line:none;text-decoration-style:solid;text-decoration-color:#000000;letter-spacing:normal;word-spacing:normal;text-transform:none;writing-mode:lr-tb;direction:ltr;text-orientation:mixed;dominant-baseline:auto;baseline-shift:baseline;text-anchor:start;white-space:normal;shape-padding:0;clip-rule:nonzero;display:inline;overflow:visible;visibility:visible;opacity:1;isolation:auto;mix-blend-mode:normal;color-interpolation:sRGB;color-interpolation-filters:linearRGB;solid-color:#000000;solid-opacity:1;vector-effect:none;fill:#ffffea;fill-opacity:1;fill-rule:nonzero;stroke:#ffffea;stroke-width:2.72900009;stroke-linecap:butt;stroke-linejoin:miter;stroke-miterlimit:4;stroke-dasharray:none;stroke-dashoffset:0;stroke-opacity:1;color-rendering:auto;image-rendering:auto;shape-rendering:auto;text-rendering:auto;enable-background:accumulate" />
    <circle
       r="52.896912"
       cy="64"
       cx="64"
       id="path4503-5"
       style="opacity:1;fill:none;fill-opacity:1;fill-rule:nonzero;stroke:#ffffea;stroke-width:5.829;stroke-linecap:round;stroke-linejoin:round;stroke-miterlimit:4;stroke-dasharray:none;stroke-dashoffset:0;stroke-opacity:1" />
  </g>
</svg>
